<svg width="280" height="80" viewBox="0 0 280 80" fill="none" xmlns="http://www.w3.org/2000/svg">
<path d="M37.6 25.36C37.6 21.32 34.84 16.64 30.24 16.64H6.92C5.88 16.64 5 17.52 5 18.56V32.16C5 33.2 5.88 34.08 6.92 34.08H30.64C35 33.84 37.6 29.32 37.6 25.36ZM29.4 20.48C33.08 20.48 33.88 23.44 33.88 25.36C33.88 27.28 33.08 30.24 29.4 30.24H8.84V20.48H29.4ZM43.5216 34.08C43.7216 34.08 43.8816 34.04 44.0816 34C48.7616 33.08 53.4416 29.24 53.4416 25.36C53.4416 21.48 48.7616 17.64 44.0816 16.72C43.8816 16.68 43.7216 16.64 43.5216 16.64C42.4816 16.64 41.6016 17.52 41.6016 18.56C41.6016 19.56 42.4016 20.28 43.4016 20.48C46.6816 21.2 49.6016 23.36 49.6016 25.36C49.6016 27.4 46.6816 29.56 43.4016 30.24C42.4016 30.44 41.6016 31.16 41.6016 32.16C41.6016 33.2 42.4816 34.08 43.5216 34.08ZM55.2016 25.36C55.2016 26.72 56.3216 27.84 57.6816 27.84C59.0416 27.84 60.1616 26.72 60.1616 25.36C60.1616 24 59.0416 22.88 57.6816 22.88C56.3216 22.88 55.2016 24 55.2016 25.36ZM71.8416 34.08C72.8816 34.08 73.7616 33.2 73.7616 32.16C73.7616 31.16 72.9616 30.44 71.9616 30.24C68.6816 29.56 65.7616 27.4 65.7616 25.36C65.7616 23.36 68.6816 21.2 71.9616 20.48C72.9616 20.28 73.7616 19.56 73.7616 18.56C73.7616 17.52 72.8816 16.64 71.8416 16.64C71.6416 16.64 71.4816 16.68 71.2816 16.72C66.6016 17.64 61.9216 21.48 61.9216 25.36C61.9216 29.24 66.6016 33.08 71.2816 34C71.4816 34.04 71.6416 34.08 71.8416 34.08Z" fill="white"/>
<path d="M9.278 57.637C9.278 56.519 8.332 55.573 7.214 55.573C6.139 55.573 5.15 56.519 5.15 57.637C5.15 61.335 8.461 64.861 12.374 64.861H31.81C36.755 64.861 39.894 59.83 39.894 55.487V48.177C39.894 47.059 38.948 46.113 37.83 46.113C36.755 46.113 35.766 47.059 35.766 48.177V55.831C35.766 57.895 34.691 60.733 30.95 60.733H13.621C11.17 60.733 9.278 59.185 9.278 57.637ZM56.8709 50.671C57.2149 50.241 57.8599 49.51 58.5049 49.51C59.1499 49.51 59.7949 50.198 60.1819 50.671L70.2009 64.044C70.5879 64.56 71.1899 64.861 71.8349 64.861C72.9529 64.861 73.8989 63.915 73.8989 62.797C73.8989 62.238 73.6409 61.722 73.2969 61.335L62.8479 47.36C61.8589 46.027 60.2249 45.253 58.5049 45.253C56.6559 45.253 54.9789 46.156 53.9899 47.489L43.5409 61.55C43.2399 61.894 43.1109 62.324 43.1109 62.797C43.1109 63.915 44.0569 64.861 45.1749 64.861C45.7769 64.861 46.3789 64.56 46.7659 64.087L56.8709 50.671ZM55.8389 60.217C55.8389 61.679 57.0429 62.883 58.5049 62.883C59.9669 62.883 61.1709 61.679 61.1709 60.217C61.1709 58.755 59.9669 57.551 58.5049 57.551C57.0429 57.551 55.8389 58.755 55.8389 60.217Z" fill="white"/>
<line x1="3" y1="41" x2="77" y2="41" stroke="#4AA7DC" stroke-width="2"/>
<path d="M90.94 36.73C90.16 36.73 89.5 37.39 89.5 38.17V48.37C89.5 49.15 90.16 49.81 90.94 49.81C91.69 49.81 92.38 49.15 92.38 48.37V44.71H108.91C111.13 44.71 112.96 42.94 112.96 40.72C112.96 38.5 111.13 36.73 108.91 36.73H90.94ZM109.03 39.61C109.63 39.61 110.17 40.12 110.17 40.72C110.17 41.35 109.63 41.83 109.03 41.83H92.38V39.61H109.03ZM139.415 48.37C139.415 48.07 139.295 47.8 139.115 47.56C136.205 43.3 132.005 41.83 124.955 41.83H118.835V40.27C118.895 39.91 119.255 39.61 119.765 39.61H135.485C136.055 39.67 136.535 40.12 136.535 40.72C136.535 41.5 137.195 42.16 137.975 42.16C138.755 42.16 139.415 41.5 139.415 40.72C139.415 38.5 137.495 36.73 135.275 36.73H119.615C117.845 36.73 115.955 38.29 115.955 40.66V48.37C115.955 49.15 116.615 49.81 117.395 49.81C118.145 49.81 118.835 49.15 118.835 48.37V44.71H124.955C129.875 44.71 133.415 45.01 136.715 49.09C136.805 49.21 136.895 49.3 136.985 49.39C137.255 49.63 137.585 49.81 137.975 49.81C138.755 49.81 139.415 49.15 139.415 48.37ZM166.83 43.27C166.83 40.3 164.88 36.91 161.61 36.73H147.93C144.48 36.73 142.41 40.24 142.41 43.27C142.41 46.24 144.36 49.63 147.63 49.81H161.31C164.76 49.81 166.83 46.3 166.83 43.27ZM160.68 46.93H148.56C145.8 46.93 145.2 44.71 145.2 43.27C145.2 41.83 145.8 39.61 148.56 39.61H160.68C163.44 39.61 164.04 41.83 164.04 43.27C164.04 44.71 163.44 46.93 160.68 46.93ZM172.712 44.77C172.712 43.99 172.052 43.33 171.272 43.33C170.522 43.33 169.832 43.99 169.832 44.77C169.832 47.35 172.142 49.81 174.872 49.81H188.432C191.882 49.81 194.072 46.3 194.072 43.27V38.17C194.072 37.39 193.412 36.73 192.632 36.73C191.882 36.73 191.192 37.39 191.192 38.17V43.51C191.192 44.95 190.442 46.93 187.832 46.93H175.742C174.032 46.93 172.712 45.85 172.712 44.77ZM219.788 39.61C220.568 39.61 221.228 38.95 221.228 38.17C221.228 37.39 220.568 36.73 219.788 36.73H202.598C199.148 36.73 197.078 40.24 197.078 43.27C197.078 46.24 199.028 49.81 202.298 49.81H219.788C220.568 49.81 221.228 49.15 221.228 48.37C221.228 47.59 220.568 46.93 219.788 46.93H203.258C200.498 46.93 199.898 44.71 199.898 43.27C199.898 41.83 200.498 39.61 203.258 39.61H219.788ZM218.528 41.83H203.588C202.808 41.83 202.148 42.49 202.148 43.27C202.148 44.05 202.808 44.71 203.588 44.71H218.528C219.308 44.71 219.968 44.05 219.968 43.27C219.968 42.49 219.308 41.83 218.528 41.83ZM224.236 43.27C224.236 46.24 226.186 49.81 229.456 49.81H247.246C248.026 49.81 248.686 49.15 248.686 48.37C248.686 47.59 248.026 46.93 247.246 46.93H230.386C227.626 46.93 227.026 44.71 227.026 43.27C227.026 41.83 227.626 39.61 230.386 39.61H260.296C259.666 40.72 259.336 42.04 259.336 43.27V48.37C259.336 49.15 259.996 49.81 260.776 49.81C261.556 49.81 262.216 49.15 262.216 48.37V43.27C262.216 41.89 262.756 39.73 265.186 39.61H271.216C271.936 39.55 272.536 38.92 272.536 38.17C272.536 37.39 271.876 36.73 271.096 36.73H229.756C226.306 36.73 224.236 40.24 224.236 43.27Z" fill="white"/>
</svg>
